{
    "asset" : {
        "generator" : "Khronos glTF Blender I/O v1.4.40",
        "version" : "2.0"
    },
    "scene" : 0,
    "scenes" : [
        {
            "name" : "Scene",
            "nodes" : [
                0,
                1,
                2,
                3,
                4,
                5
            ]
        }
    ],
    "nodes" : [
        {
            "name" : "Light.001",
            "rotation" : [
                -0.1272912621498108,
                0.8999313116073608,
                -0.29404217004776,
                -0.29573604464530945
            ],
            "translation" : [
                -3.2980551719665527,
                0.571474552154541,
                6.1042656898498535
            ]
        },
        {
            "name" : "Camera.001",
            "rotation" : [
                0.10407163202762604,
                0.8333170413970947,
                -0.5162687301635742,
                0.16798356175422668
            ],
            "translation" : [
                3.8531861305236816,
                4.958309173583984,
                -5.345402717590332
            ]
        },
        {
            "name" : "Light.002",
            "rotation" : [
                -0.1272912621498108,
                0.8999313116073608,
                -0.29404217004776,
                -0.29573604464530945
            ],
            "translation" : [
                6.307705879211426,
                0.571474552154541,
                1.3228168487548828
            ]
        },
        {
            "name" : "Light",
            "rotation" : [
                0.16907575726509094,
                0.7558803558349609,
                -0.27217137813568115,
                0.570947527885437
            ],
            "translation" : [
                4.076245307922363,
                5.903861999511719,
                -1.0054539442062378
            ]
        },
        {
            "name" : "Camera",
            "rotation" : [
                0.483536034822464,
                0.33687159419059753,
                -0.20870360732078552,
                0.7804827094078064
            ],
            "translation" : [
                7.358891487121582,
                4.958309173583984,
                6.925790786743164
            ]
        },
        {
            "mesh" : 0,
            "name" : "Trashy2",
            "rotation" : [
                0.5082287788391113,
                0.4916335940361023,
                -0.4916336238384247,
                0.5082287788391113
            ],
            "translation" : [
                -0.21432612836360931,
                0,
                0.09427076578140259
            ]
        }
    ],
    "materials" : [
        {
            "alphaMode" : "BLEND",
            "doubleSided" : true,
            "name" : "Trashy2",
            "pbrMetallicRoughness" : {
                "baseColorTexture" : {
                    "index" : 0,
                    "texCoord" : 0
                },
                "metallicFactor" : 0,
                "roughnessFactor" : 0.5
            }
        }
    ],
    "meshes" : [
        {
            "name" : "Trashy2",
            "primitives" : [
                {
                    "attributes" : {
                        "POSITION" : 0,
                        "NORMAL" : 1,
                        "TEXCOORD_0" : 2
                    },
                    "indices" : 3,
                    "material" : 0
                }
            ]
        }
    ],
    "textures" : [
        {
            "sampler" : 0,
            "source" : 0
        }
    ],
    "images" : [
        {
            "bufferView" : 4,
            "mimeType" : "image/png",
            "name" : "Trashy2"
        }
    ],
    "accessors" : [
        {
            "bufferView" : 0,
            "componentType" : 5126,
            "count" : 4004,
            "max" : [
                0.28835365176200867,
                0,
                0.43061548471450806
            ],
            "min" : [
                -0.2120848298072815,
                0,
                -0.3853321969509125
            ],
            "type" : "VEC3"
        },
        {
            "bufferView" : 1,
            "componentType" : 5126,
            "count" : 4004,
            "type" : "VEC3"
        },
        {
            "bufferView" : 2,
            "componentType" : 5126,
            "count" : 4004,
            "type" : "VEC2"
        },
        {
            "bufferView" : 3,
            "componentType" : 5123,
            "count" : 17904,
            "type" : "SCALAR"
        }
    ],
    "bufferViews" : [
        {
            "buffer" : 0,
            "byteLength" : 48048,
            "byteOffset" : 0
        },
        {
            "buffer" : 0,
            "byteLength" : 48048,
            "byteOffset" : 48048
        },
        {
            "buffer" : 0,
            "byteLength" : 32032,
            "byteOffset" : 96096
        },
        {
            "buffer" : 0,
            "byteLength" : 35808,
            "byteOffset" : 128128
        },
        {
            "buffer" : 0,
            "byteLength" : 640676,
            "byteOffset" : 163936
        }
    ],
    "samplers" : [
        {
            "magFilter" : 9729,
            "minFilter" : 9986
        }
    ],
    "buffers" : [
        {
            "byteLength" : 804612,
            "uri" : "data:application/octet-stream;base64,"
        }
    ]
}
